<svg id="Capa_1" enable-background="new 0 0 512.511 512.511" height="512" viewBox="0 0 512.511 512.511" width="512" xmlns="http://www.w3.org/2000/svg"><g><path d="m236.951 86.395.01-1.04c-186.51 72.426-244.578 270.665-236.18 427.01h43.94c-1.337-56.903 2.446-115.172 19.151-169.79 38.254-121.568 102.872-199.47 173.079-256.18z"/><path d="m292.391 228.385c1.091 38.058 32.941 68.195 70.19 68.02h44.84l69.53 33.91 35.56-49.78-90.35-108.02c-4.034-33.607-24.901-62.934-55.74-77.08 0 0-49.46-22.85-49.46-22.85 1.331-27.064-5.886-52.236-24.21-72.44-29.704 32.429-25.475 61.655-25.93 101.86l-6.47 4.42c-.21.14-16.98 11.77-40.26 34.53-7.77 7.6-16.26 16.43-25.11 26.49-63.266 69.372-122.771 189.787-120.258 309.201-.026 8.745.015 26.918-.002 35.719h337.59c-.702-35.161-4.342-74.398-33.201-101.17.001 0-14.559-14.1-14.559-14.1-21.33-20.67-34.93-48.31-38.54-77.6-37.24-14.64-63.66-50.96-63.66-93.33v-21.58h30c.016 1.213-.041 23.23.04 23.8zm51.62-72.75h30v30h-30z"/></g></svg>